:SAMPLES-PER-SECOND 30
:FRAME-RANGE 1-3535
:FULLY-SPECIFIED
:DEGREES
2983
root  50.2541 38.8694 -19.2359 -175.644 -18.0554 178.962
RightUpLeg  -10.3399 6.00395 -0.339296
RightLeg  27.0583 -4.0515 -2.47029
RightFoot  -18.6936 0.0700623 3.0608
RightToes  5.38503e-012 1.26228e-014 -6.01869e-014
Spine  1.79902 3.36479 6.58125
Spine1  6.54499 5.56607 -8.52068
HEad  9.326 43.9334 -5.62725
LeftShoulder1  0.462852 1.10299 -14.3468
LeftArm  -7.41889 4.94677 -29.5597
LeftForeArm  23.1551 -38.0009 -7.32044
LeftHand  -0.0663382 4.76247 9.11168
RightShoulder  1.09905 4.32246 6.81177
RightArm  -25.8198 5.612 21.519
RightForeArm  48.7146 16.2006 4.11171
RightHand  0.208491 -7.27927 -14.0962
LeftUpLeg  -25.6157 11.0062 8.58174
LeftLeg  15.4512 18.0038 5.35944
LeftFoot  -12.5931 0.00605763 -6.34229
LeftToes  8.9788e-011 3.29689e-010 2.1201e-011
2984
root  49.8479 39.022 -19.5945 -175.047 -18.9144 179.102
RightUpLeg  -9.04638 4.91376 -0.644021
RightLeg  24.7377 -3.90532 -2.18162
RightFoot  -18.277 0.076423 3.30364
RightToes  5.38503e-012 1.26228e-014 -6.01869e-014
Spine  1.77847 4.10204 8.13957
Spine1  6.06521 6.80113 -10.5615
HEad  8.22078 44.9535 -5.99019
LeftShoulder1  0.262835 2.14356 -16.1113
LeftArm  -7.59244 0.97068 -30.376
LeftForeArm  21.6836 -38.2887 -7.49583
LeftHand  -0.0754565 4.6689 9.51953
RightShoulder  1.13701 4.55505 6.88219
RightArm  -28.9628 7.71801 21.7152
RightForeArm  52.8248 2.22144 3.15667
RightHand  0.137021 -6.65003 -14.3736
LeftUpLeg  -25.3099 8.55549 8.44562
LeftLeg  14.5885 16.1637 4.95047
LeftFoot  -14.3131 -0.120002 -7.91809
LeftToes  8.9788e-011 3.29689e-010 2.1201e-011
2985
root  49.5227 39.0944 -20.0052 -174.932 -22.9031 179.507
RightUpLeg  -6.97236 2.05018 -0.140442
RightLeg  22.5979 -5.04723 -2.51887
RightFoot  -18.2583 0.119233 4.0189
RightToes  5.38503e-012 1.26228e-014 -6.01869e-014
Spine  1.37422 3.43234 6.92963
Spine1  5.91467 5.56021 -8.50698
HEad  6.28169 45.7818 -6.81493
LeftShoulder1  0.3956 1.59031 -16.5882
LeftArm  -7.26555 -1.55445 -32.2557
LeftForeArm  18.8441 -34.4241 -6.59658
LeftHand  -0.109062 4.29272 10.0149
RightShoulder  1.16643 4.42169 7.58968
RightArm  -29.8137 10.0952 23.4583
RightForeArm  56.7038 -5.40122 1.2826
RightHand  0.134034 -6.75727 -13.1542
LeftUpLeg  -26.1136 6.71965 7.98612
LeftLeg  14.9321 13.7677 4.5831
LeftFoot  -14.8162 -0.141801 -7.58927
LeftToes  8.9788e-011 3.29689e-010 2.1201e-011
2986
root  49.2075 39.0461 -20.493 -175.23 -29.2031 -179.276
RightUpLeg  -4.54782 -2.21033 1.42935
RightLeg  20.4308 -7.02565 -3.09987
RightFoot  -18.7126 0.15929 4.44007
RightToes  5.38503e-012 1.26228e-014 -6.01869e-014
Spine  0.963563 1.97879 4.66614
Spine1  5.22954 2.82011 -3.76368
HEad  4.77959 46.1094 -7.34839
LeftShoulder1  0.689776 0.265088 -16.1778
LeftArm  -3.50125 -4.51335 -35.1342
LeftForeArm  15.4032 -26.1832 -4.80092
LeftHand  -0.133254 3.98977 9.9481
RightShoulder  1.11376 2.57701 11.8276
RightArm  -29.8312 15.1906 22.0137
RightForeArm  60.0561 -5.31762 1.43563
RightHand  0.138533 -7.06819 -11.2687
LeftUpLeg  -28.0243 4.81292 8.15487
LeftLeg  16.6116 10.6257 3.92225
LeftFoot  -15.1278 -0.160134 -7.57491
LeftToes  8.9788e-011 3.29689e-010 2.1201e-011
2987
root  48.8919 38.8674 -21.0048 -175.721 -35.8382 -178.103
RightUpLeg  -2.54203 -5.47796 3.061
RightLeg  19.2577 -10.2523 -3.95557
RightFoot  -19.7508 0.268997 5.47738
RightToes  5.38503e-012 1.26228e-014 -6.01869e-014
Spine  0.278336 0.541798 2.08548
Spine1  5.39084 0.215304 0.717793
HEad  2.88547 45.8201 -7.78374
LeftShoulder1  0.990117 -1.39522 -14.4087
LeftArm  -6.33405 -8.95608 -38.884
LeftForeArm  20.5607 -13.7237 -7.65722
LeftHand  -0.113958 4.12177 9.1053
RightShoulder  1.08037 1.3161 16.6744
RightArm  -29.9918 17.6498 20.6535
RightForeArm  61.8926 -5.26987 1.52447
RightHand  0.127871 -7.215 -9.83949
LeftUpLeg  -30.0644 2.49626 8.36351
LeftLeg  18.2891 7.49227 3.07914
LeftFoot  -13.5977 -0.0824501 -8.30614
LeftToes  8.9788e-011 3.29689e-010 2.1201e-011
2988
root  48.5525 38.6129 -21.5254 -176.615 -41.0603 -176.913
RightUpLeg  -0.892352 -6.07912 4.75137
RightLeg  19.1729 -14.6679 -5.09955
RightFoot  -21.021 0.428107 6.73437
RightToes  5.38503e-012 1.26228e-014 -6.01869e-014
Spine  -0.108045 -0.296157 0.443466
Spine1  5.9402 -1.37179 3.59897
HEad  1.08047 45.4968 -8.36352
LeftShoulder1  1.27742 -3.09123 -13.2122
LeftArm  -9.21801 -13.9226 -41.9228
LeftForeArm  26.3983 -0.915193 -9.62629
LeftHand  -0.0894683 4.20608 7.15353
RightShoulder  1.05157 0.592321 20.544
RightArm  -29.0554 18.3555 21.2543
RightForeArm  64.8398 -5.26017 2.08706
RightHand  0.128854 -7.17784 -10.0783
LeftUpLeg  -31.48 0.306062 8.83107
LeftLeg  19.4986 4.44466 2.07009
LeftFoot  -9.07554 0.24155 -9.45445
LeftToes  8.9788e-011 3.29689e-010 2.1201e-011
